<svg width="20" height="35" viewBox="0 0 20 35" fill="none" xmlns="http://www.w3.org/2000/svg">
<path fill-rule="evenodd" clip-rule="evenodd" d="M19.2369 33.9601C18.7477 34.4487 18.0845 34.7232 17.393 34.7232C16.7015 34.7232 16.0383 34.4487 15.5491 33.9601L0.763096 19.1741C0.274461 18.6849 0 18.0217 0 17.3302C0 16.6387 0.274461 15.9756 0.763096 15.4863L15.5491 0.700306C16.0437 0.2394 16.698 -0.0115205 17.3739 0.000406518C18.0499 0.0123335 18.6949 0.286177 19.173 0.764245C19.651 1.24231 19.9249 1.88728 19.9368 2.56326C19.9487 3.23925 19.6978 3.89347 19.2369 4.38811L6.2948 17.3302L19.2369 30.2723C19.7255 30.7616 20 31.4247 20 32.1162C20 32.8077 19.7255 33.4709 19.2369 33.9601Z" fill="#2D6A2E"/>
</svg>
