<svg width="20" height="35" viewBox="0 0 20 35" fill="none" xmlns="http://www.w3.org/2000/svg">
<path fill-rule="evenodd" clip-rule="evenodd" d="M0.763096 0.763097C1.25234 0.274462 1.91553 0 2.607 0C3.29846 0 3.96166 0.274462 4.4509 0.763097L19.2369 15.5491C19.7255 16.0383 20 16.7015 20 17.393C20 18.0845 19.7255 18.7477 19.2369 19.2369L4.4509 34.0229C3.95627 34.4838 3.30204 34.7347 2.62606 34.7228C1.95007 34.7109 1.3051 34.437 0.827035 33.959C0.348967 33.4809 0.0751245 32.8359 0.0631975 32.1599C0.0512705 31.484 0.302191 30.8297 0.763096 30.3351L13.7052 17.393L0.763096 4.4509C0.274461 3.96166 0 3.29846 0 2.607C0 1.91553 0.274461 1.25234 0.763096 0.763097Z" fill="#2D6A2E"/>
</svg>
