<svg width="30" height="30" viewBox="0 0 30 30" fill="none" xmlns="http://www.w3.org/2000/svg">
<path fill-rule="evenodd" clip-rule="evenodd" d="M22.4697 12.8393C22.4697 15.3928 21.4553 17.8418 19.6496 19.6475C17.844 21.4531 15.395 22.4675 12.8414 22.4675C10.2878 22.4675 7.83885 21.4531 6.0332 19.6475C4.22755 17.8418 3.21315 15.3928 3.21315 12.8393C3.21315 10.2857 4.22755 7.8367 6.0332 6.03106C7.83885 4.22541 10.2878 3.21101 12.8414 3.21101C15.395 3.21101 17.844 4.22541 19.6496 6.03106C21.4553 7.8367 22.4697 10.2857 22.4697 12.8393ZM20.7148 22.9833C18.1346 24.9863 14.8881 25.9308 11.6361 25.6244C8.3841 25.3181 5.37109 23.7838 3.21047 21.3341C1.04985 18.8844 -0.0959618 15.7033 0.00630035 12.4385C0.108563 9.17372 1.45121 6.07061 3.76091 3.76091C6.07061 1.45121 9.17372 0.108563 12.4385 0.00630035C15.7033 -0.0959618 18.8844 1.04985 21.3341 3.21047C23.7838 5.37109 25.3181 8.3841 25.6244 11.6361C25.9308 14.8881 24.9863 18.1346 22.9833 20.7148L29.4891 27.2206C29.6468 27.3676 29.7733 27.5448 29.861 27.7417C29.9488 27.9386 29.9959 28.1511 29.9998 28.3666C30.0036 28.5821 29.9639 28.7962 29.8832 28.9961C29.8025 29.1959 29.6823 29.3775 29.5299 29.5299C29.3775 29.6823 29.1959 29.8025 28.9961 29.8832C28.7962 29.9639 28.5821 30.0036 28.3666 29.9998C28.1511 29.9959 27.9386 29.9488 27.7417 29.861C27.5448 29.7733 27.3676 29.6468 27.2206 29.4891L20.7148 22.9833Z" fill="#0A734B"/>
</svg>
