<svg width="21" height="28" viewBox="0 0 26 33" fill="none" xmlns="http://www.w3.org/2000/svg">
<path d="M13 15C17.1421 15 20.5 11.6421 20.5 7.5C20.5 3.35786 17.1421 0 13 0C8.85786 0 5.5 3.35786 5.5 7.5C5.5 11.6421 8.85786 15 13 15Z" fill="white"/>
<path d="M13 15.9102C9.55219 15.9102 6.24559 17.2798 3.80762 19.7178C1.36964 22.1557 0 25.4623 0 28.9102V31.0901C0 31.3554 0.105371 31.6097 0.292908 31.7972C0.480444 31.9848 0.734784 32.0901 1 32.0901H25C25.2652 32.0901 25.5196 31.9848 25.7071 31.7972C25.8947 31.6097 26 31.3554 26 31.0901V28.9102C26 25.4623 24.6304 22.1557 22.1924 19.7178C19.7544 17.2798 16.4478 15.9102 13 15.9102Z" fill="white"/>
</svg>
