<svg width="26" height="26" viewBox="0 0 30 30" fill="none" xmlns="http://www.w3.org/2000/svg">
<path d="M15.8634 19.7727V20.2727H16.3634H17.3861C17.5247 20.2727 17.6577 20.3278 17.7557 20.4258C17.8538 20.5239 17.9088 20.6568 17.9088 20.7955C17.9088 20.9341 17.8538 21.067 17.7557 21.1651C17.6577 21.2631 17.5247 21.3182 17.3861 21.3182H13.2952C13.1566 21.3182 13.0236 21.2631 12.9256 21.1651C12.8275 21.067 12.7725 20.9341 12.7725 20.7955C12.7725 20.6568 12.8275 20.5239 12.9256 20.4258L12.572 20.0723L12.9256 20.4258C13.0236 20.3278 13.1566 20.2727 13.2952 20.2727H14.3179H14.8179V19.7727V15V14.5H14.3179H13.2952C13.1566 14.5 13.0236 14.4449 12.9256 14.3469C12.8275 14.2489 12.7725 14.1159 12.7725 13.9773C12.7725 13.8386 12.8275 13.7057 12.9256 13.6076L12.5792 13.2613L12.9256 13.6076C13.0236 13.5096 13.1566 13.4545 13.2952 13.4545H15.3406C15.4793 13.4545 15.6122 13.5096 15.7103 13.6076C15.8083 13.7057 15.8634 13.8386 15.8634 13.9773V19.7727ZM15.8634 8.86364C15.8634 9.09269 15.7724 9.31236 15.6104 9.47432C15.4485 9.63628 15.2288 9.72727 14.9997 9.72727C14.7707 9.72727 14.551 9.63628 14.3891 9.47432C14.2271 9.31236 14.1361 9.09269 14.1361 8.86364C14.1361 8.63459 14.2271 8.41492 14.3891 8.25295L14.0355 7.8994L14.3891 8.25295C14.551 8.09099 14.7707 8 14.9997 8C15.2288 8 15.4485 8.09099 15.6104 8.25295C15.7724 8.41492 15.8634 8.63459 15.8634 8.86364Z" fill="white" stroke="white"/>
<path d="M0.5 15C0.5 6.99205 6.99205 0.5 15 0.5C23.0079 0.5 29.5 6.99205 29.5 15C29.5 23.0079 23.0079 29.5 15 29.5C6.99205 29.5 0.5 23.0079 0.5 15ZM5.4862 5.4862C2.96298 8.00942 1.54545 11.4316 1.54545 15C1.54545 18.5684 2.96298 21.9906 5.4862 24.5138C8.00942 27.037 11.4316 28.4545 15 28.4545C18.5684 28.4545 21.9906 27.037 24.5138 24.5138C27.037 21.9906 28.4545 18.5684 28.4545 15C28.4545 11.4316 27.037 8.00942 24.5138 5.4862C21.9906 2.96298 18.5684 1.54545 15 1.54545C11.4316 1.54545 8.00942 2.96298 5.4862 5.4862Z" fill="white" stroke="white"/>
</svg>
